<?xml version="1.0" standalone="no"?>
<!DOCTYPE svg PUBLIC "-//W3C//DTD SVG 20010904//EN"
 "http://www.w3.org/TR/2001/REC-SVG-20010904/DTD/svg10.dtd">
<svg version="1.0" xmlns="http://www.w3.org/2000/svg"
 width="512.000000pt" height="512.000000pt" viewBox="0 0 512.000000 512.000000"
 preserveAspectRatio="xMidYMid meet">
<metadata>
Created by potrace 1.11, written by Peter Selinger 2001-2013
</metadata>
<g transform="translate(0.000000,512.000000) scale(0.100000,-0.100000)"
fill="#000000" stroke="none">
<path d="M2265 3734 l6 -676 -33 20 c-18 11 -224 132 -458 270 -234 137 -460
270 -503 296 -43 25 -81 46 -84 46 -3 0 -17 8 -31 18 -15 10 -43 28 -63 40
l-36 22 -32 -51 c-17 -28 -31 -52 -31 -54 0 -3 -54 -102 -120 -220 -66 -119
-121 -221 -123 -226 -2 -10 56 -45 218 -133 52 -28 352 -193 545 -300 36 -19
145 -79 243 -133 97 -54 177 -100 177 -103 0 -4 -138 -83 -307 -177 -170 -95
-378 -211 -463 -258 -242 -136 -261 -147 -321 -179 -112 -62 -118 -24 56 -331
84 -148 157 -269 162 -268 7 1 276 158 501 292 29 17 57 31 62 31 6 0 10 4 10
9 0 5 10 13 23 17 12 3 29 12 37 19 8 7 35 24 60 37 53 29 455 265 488 286
l23 15 -6 -682 -6 -681 301 0 300 0 -5 680 -5 679 158 -92 c140 -82 487 -285
560 -328 250 -148 479 -281 486 -282 4 -1 19 16 31 38 246 430 283 500 268
512 -8 6 -273 157 -589 334 -316 178 -574 326 -574 329 0 3 102 62 228 131
125 70 346 193 492 274 146 81 299 166 341 189 136 74 140 31 -36 346 -84 151
-157 274 -162 273 -4 -1 -132 -74 -283 -163 -151 -89 -291 -171 -310 -182 -88
-51 -568 -333 -588 -346 l-22 -15 5 677 5 676 -300 0 -301 0 6 -676z"/>
</g>
</svg>
